<svg width="48" height="48" viewBox="0 0 48 48" fill="none" xmlns="http://www.w3.org/2000/svg">
<rect width="48" height="48" rx="8" fill="#E0E7FF"/>
<path d="M15.6 22.8001C16.9238 22.8001 18 21.7238 18 20.4001C18 19.0763 16.9238 18.0001 15.6 18.0001C14.2763 18.0001 13.2 19.0763 13.2 20.4001C13.2 21.7238 14.2763 22.8001 15.6 22.8001ZM32.4 22.8001C33.7238 22.8001 34.8 21.7238 34.8 20.4001C34.8 19.0763 33.7238 18.0001 32.4 18.0001C31.0763 18.0001 30 19.0763 30 20.4001C30 21.7238 31.0763 22.8001 32.4 22.8001ZM33.6 24.0001H31.2C30.54 24.0001 29.9438 24.2663 29.5088 24.6976C31.02 25.5263 32.0925 27.0226 32.325 28.8001H34.8C35.4638 28.8001 36 28.2638 36 27.6001V26.4001C36 25.0763 34.9238 24.0001 33.6 24.0001ZM24 24.0001C26.3213 24.0001 28.2 22.1213 28.2 19.8001C28.2 17.4788 26.3213 15.6001 24 15.6001C21.6788 15.6001 19.8 17.4788 19.8 19.8001C19.8 22.1213 21.6788 24.0001 24 24.0001ZM26.88 25.2001H26.5688C25.7888 25.5751 24.9225 25.8001 24 25.8001C23.0775 25.8001 22.215 25.5751 21.4313 25.2001H21.12C18.735 25.2001 16.8 27.1351 16.8 29.5201V30.6001C16.8 31.5938 17.6063 32.4001 18.6 32.4001H29.4C30.3938 32.4001 31.2 31.5938 31.2 30.6001V29.5201C31.2 27.1351 29.265 25.2001 26.88 25.2001ZM18.4913 24.6976C18.0563 24.2663 17.46 24.0001 16.8 24.0001H14.4C13.0763 24.0001 12 25.0763 12 26.4001V27.6001C12 28.2638 12.5362 28.8001 13.2 28.8001H15.6713C15.9075 27.0226 16.98 25.5263 18.4913 24.6976Z" fill="#63559A"/>
</svg>
