<svg width="48" height="48" viewBox="0 0 48 48" fill="none" xmlns="http://www.w3.org/2000/svg">
<rect width="48" height="48" rx="8" fill="#E0E7FF"/>
<path d="M24 14C18.486 14 14 18.486 14 24C14 29.514 18.486 34 24 34C29.514 34 34 29.514 34 24C34 18.486 29.514 14 24 14ZM31.931 23H29.167C29.0436 20.8112 28.4313 18.678 27.375 16.757C28.5992 17.3291 29.6589 18.2014 30.4554 19.2929C31.252 20.3844 31.7596 21.6597 31.931 23ZM24.53 16.027C25.565 17.391 26.957 19.807 27.157 23H21.03C21.169 20.404 22.024 17.972 23.481 16.026C23.653 16.016 23.825 16 24 16C24.179 16 24.354 16.016 24.53 16.027ZM20.688 16.727C19.704 18.618 19.136 20.762 19.03 23H16.069C16.2418 21.6478 16.7566 20.3621 17.5649 19.2644C18.3732 18.1667 19.4481 17.2934 20.688 16.727ZM16.069 25H19.043C19.179 27.379 19.708 29.478 20.599 31.23C19.3812 30.6559 18.3277 29.7842 17.536 28.6953C16.7442 27.6064 16.2397 26.3355 16.069 25ZM23.45 31.973C22.049 30.275 21.222 27.896 21.041 25H27.154C26.946 27.773 26.037 30.196 24.551 31.972C24.369 31.984 24.187 32 24 32C23.814 32 23.633 31.984 23.45 31.973ZM27.461 31.201C28.416 29.407 28.999 27.3 29.152 25H31.93C31.7612 26.3243 31.264 27.5853 30.4834 28.6684C29.7029 29.7514 28.6639 30.622 27.461 31.201Z" fill="#63559A"/>
</svg>
