<svg width="48" height="48" viewBox="0 0 48 48" fill="none" xmlns="http://www.w3.org/2000/svg">
<rect width="48" height="48" rx="8" fill="#E0E7FF"/>
<path fill-rule="evenodd" clip-rule="evenodd" d="M30 22.5C31.6569 22.5 33 23.8431 33 25.5V31.5C33 33.1569 31.6569 34.5 30 34.5H18C16.3432 34.5 15 33.1569 15 31.5V25.5C15 23.8431 16.3432 22.5 18 22.5V19.5C18 16.1863 20.6863 13.5 24 13.5C27.3137 13.5 30 16.1863 30 19.5V22.5ZM24 15.5C26.2091 15.5 28 17.2909 28 19.5V22.5H20V19.5C20 17.2909 21.7909 15.5 24 15.5ZM30 24.5H18C17.4477 24.5 17 24.9477 17 25.5V31.5C17 32.0523 17.4477 32.5 18 32.5H30C30.5523 32.5 31 32.0523 31 31.5V25.5C31 24.9477 30.5523 24.5 30 24.5Z" fill="#63559A"/>
</svg>
