<svg width="58" height="58" viewBox="0 0 58 58" fill="none" xmlns="http://www.w3.org/2000/svg">
<rect width="58" height="58" rx="9.66667" fill="white"/>
<path d="M29 19.7611C29.6494 19.0248 30.5076 18.5038 31.4604 18.2673C32.4132 18.0308 33.4155 18.0901 34.3338 18.4372C35.2521 18.7844 36.0429 19.4029 36.601 20.2105C37.1591 21.0182 37.4581 21.9766 37.4581 22.9583C37.4581 23.9401 37.1591 24.8985 36.601 25.7061C36.0429 26.5138 35.2521 27.1323 34.3338 27.4794C33.4155 27.8266 32.4132 27.8858 31.4604 27.6493C30.5076 27.4128 29.6494 26.8918 29 26.1556M32.625 39.875H18.125V38.6667C18.125 36.7438 18.8888 34.8998 20.2485 33.5401C21.6081 32.1805 23.4522 31.4167 25.375 31.4167C27.2978 31.4167 29.1419 32.1805 30.5015 33.5401C31.8612 34.8998 32.625 36.7438 32.625 38.6667V39.875ZM32.625 39.875H39.875V38.6667C39.8752 37.3939 39.5403 36.1436 38.9041 35.0413C38.2678 33.939 37.3526 33.0237 36.2504 32.3872C35.1483 31.7508 33.898 31.4157 32.6253 31.4156C31.3525 31.4156 30.1022 31.7506 29 32.387M30.2083 22.9583C30.2083 24.2402 29.6991 25.4696 28.7927 26.376C27.8863 27.2824 26.6569 27.7917 25.375 27.7917C24.0931 27.7917 22.8637 27.2824 21.9573 26.376C21.0509 25.4696 20.5417 24.2402 20.5417 22.9583C20.5417 21.6765 21.0509 20.4471 21.9573 19.5407C22.8637 18.6342 24.0931 18.125 25.375 18.125C26.6569 18.125 27.8863 18.6342 28.7927 19.5407C29.6991 20.4471 30.2083 21.6765 30.2083 22.9583Z" stroke="#63559A" stroke-width="2.41667" stroke-linecap="round" stroke-linejoin="round"/>
</svg>
